<svg width="176" height="176" viewBox="0 0 176 176" fill="none" xmlns="http://www.w3.org/2000/svg">
<circle cx="103.5" cy="2.5" r="2.5" fill="#C4C4C4"/>
<circle cx="138.5" cy="2.5" r="2.5" fill="#C4C4C4"/>
<circle cx="173.5" cy="2.5" r="2.5" fill="#C4C4C4"/>
<circle cx="103.5" cy="37.5" r="2.5" fill="#C4C4C4"/>
<circle cx="138.5" cy="37.5" r="2.5" fill="#C4C4C4"/>
<circle cx="173.5" cy="37.5" r="2.5" fill="#C4C4C4"/>
<circle cx="103.5" cy="72.5" r="2.5" fill="#C4C4C4"/>
<circle cx="138.5" cy="72.5" r="2.5" fill="#C4C4C4"/>
<circle cx="173.5" cy="72.5" r="2.5" fill="#C4C4C4"/>
<circle cx="2.5" cy="2.5" r="2.5" fill="#C4C4C4"/>
<circle cx="37.5" cy="2.5" r="2.5" fill="#C4C4C4"/>
<circle cx="72.5" cy="2.5" r="2.5" fill="#C4C4C4"/>
<circle cx="2.5" cy="37.5" r="2.5" fill="#C4C4C4"/>
<circle cx="37.5" cy="37.5" r="2.5" fill="#C4C4C4"/>
<circle cx="72.5" cy="37.5" r="2.5" fill="#C4C4C4"/>
<circle cx="2.5" cy="72.5" r="2.5" fill="#C4C4C4"/>
<circle cx="37.5" cy="72.5" r="2.5" fill="#C4C4C4"/>
<circle cx="72.5" cy="72.5" r="2.5" fill="#C4C4C4"/>
<circle cx="103.5" cy="103.5" r="2.5" fill="#C4C4C4"/>
<circle cx="138.5" cy="103.5" r="2.5" fill="#C4C4C4"/>
<circle cx="173.5" cy="103.5" r="2.5" fill="#C4C4C4"/>
<circle cx="103.5" cy="138.5" r="2.5" fill="#C4C4C4"/>
<circle cx="138.5" cy="138.5" r="2.5" fill="#C4C4C4"/>
<circle cx="173.5" cy="138.5" r="2.5" fill="#C4C4C4"/>
<circle cx="103.5" cy="173.5" r="2.5" fill="#C4C4C4"/>
<circle cx="138.5" cy="173.5" r="2.5" fill="#C4C4C4"/>
<circle cx="173.5" cy="173.5" r="2.5" fill="#C4C4C4"/>
<circle cx="2.5" cy="103.5" r="2.5" fill="#C4C4C4"/>
<circle cx="37.5" cy="103.5" r="2.5" fill="#C4C4C4"/>
<circle cx="72.5" cy="103.5" r="2.5" fill="#C4C4C4"/>
<circle cx="2.5" cy="138.5" r="2.5" fill="#C4C4C4"/>
<circle cx="37.5" cy="138.5" r="2.5" fill="#C4C4C4"/>
<circle cx="72.5" cy="138.5" r="2.5" fill="#C4C4C4"/>
<circle cx="2.5" cy="173.5" r="2.5" fill="#C4C4C4"/>
<circle cx="37.5" cy="173.5" r="2.5" fill="#C4C4C4"/>
<circle cx="72.5" cy="173.5" r="2.5" fill="#C4C4C4"/>
</svg>
