<svg width="197" height="74" viewBox="0 0 197 74" fill="none" xmlns="http://www.w3.org/2000/svg">
<g filter="url(#filter0_d)">
<rect x="4" width="189" height="66" rx="16" fill="white"/>
</g>
<path d="M45.6414 24.8208C47.5478 24.8208 49.0933 23.2753 49.0933 21.3689C49.0933 19.4625 47.5478 17.917 45.6414 17.917C43.7349 17.917 42.1895 19.4625 42.1895 21.3689C42.1895 23.2753 43.7349 24.8208 45.6414 24.8208Z" stroke="#2E2F32" stroke-miterlimit="10"/>
<path d="M46.5276 25.7832H45.792H45.7543H45.0186C42.5098 25.7832 40.4727 27.8204 40.4727 30.3291V36.4973C40.4727 37.1386 40.982 37.6479 41.6233 37.6479V42.7975C41.6233 45.0799 43.4718 46.9473 45.7543 46.9662H45.7731H45.792C48.0744 46.9473 49.9229 45.0799 49.9229 42.7975V37.6479C50.5643 37.6479 51.0736 37.1386 51.0736 36.4973V30.3291C51.0547 27.8204 49.0364 25.7832 46.5276 25.7832Z" stroke="#2E2F32" stroke-miterlimit="10"/>
<path d="M57.1663 36.0249C57.1663 38.5336 51.9413 40.5708 45.4902 40.5708C39.0392 40.5708 33.833 38.5525 33.833 36.0249C33.833 34.214 36.5304 32.6673 40.4539 31.9316" stroke="#2E2F32" stroke-miterlimit="10" stroke-linecap="round" stroke-linejoin="round"/>
<path d="M80.96 40C80.8133 40 80.6867 39.9533 80.58 39.86C80.4867 39.7667 80.44 39.6467 80.44 39.5V29.26H76.92C76.7733 29.26 76.6467 29.2133 76.54 29.12C76.4467 29.0267 76.4 28.9067 76.4 28.76V26.52C76.4 26.3733 76.4467 26.2533 76.54 26.16C76.6467 26.0533 76.7733 26 76.92 26H87.78C87.9267 26 88.0467 26.0533 88.14 26.16C88.2467 26.2533 88.3 26.3733 88.3 26.52V28.76C88.3 28.9067 88.2467 29.0267 88.14 29.12C88.0467 29.2133 87.9267 29.26 87.78 29.26H84.26V39.5C84.26 39.6467 84.2067 39.7667 84.1 39.86C84.0067 39.9533 83.8867 40 83.74 40H80.96ZM93.0775 40.2C91.3975 40.2 90.1042 39.8133 89.1975 39.04C88.3042 38.2533 87.8175 37.14 87.7375 35.7C87.7242 35.5267 87.7175 35.2267 87.7175 34.8C87.7175 34.3733 87.7242 34.0733 87.7375 33.9C87.8175 32.4867 88.3175 31.3867 89.2375 30.6C90.1708 29.8 91.4508 29.4 93.0775 29.4C94.7042 29.4 95.9775 29.8 96.8975 30.6C97.8308 31.3867 98.3375 32.4867 98.4175 33.9C98.4442 34.2467 98.4575 34.5467 98.4575 34.8C98.4575 35.0533 98.4442 35.3533 98.4175 35.7C98.3375 37.14 97.8442 38.2533 96.9375 39.04C96.0442 39.8133 94.7575 40.2 93.0775 40.2ZM93.0775 37.68C93.6242 37.68 94.0308 37.5133 94.2975 37.18C94.5642 36.8333 94.7175 36.3067 94.7575 35.6C94.7708 35.4667 94.7775 35.2 94.7775 34.8C94.7775 34.4 94.7708 34.1333 94.7575 34C94.7175 33.3067 94.5642 32.7867 94.2975 32.44C94.0308 32.0933 93.6242 31.92 93.0775 31.92C92.5308 31.92 92.1242 32.0933 91.8575 32.44C91.5908 32.7867 91.4375 33.3067 91.3975 34L91.3775 34.8L91.3975 35.6C91.4375 36.3067 91.5908 36.8333 91.8575 37.18C92.1242 37.5133 92.5308 37.68 93.0775 37.68ZM104.183 40.2C103.009 40.2 102.063 39.8067 101.343 39.02C100.623 38.2333 100.263 37.12 100.263 35.68V30.1C100.263 29.9533 100.309 29.8333 100.403 29.74C100.509 29.6467 100.629 29.6 100.763 29.6H103.423C103.569 29.6 103.689 29.6467 103.783 29.74C103.889 29.8333 103.943 29.9533 103.943 30.1V35.56C103.943 36.8 104.496 37.42 105.603 37.42C106.136 37.42 106.549 37.26 106.843 36.94C107.149 36.6067 107.303 36.1467 107.303 35.56V30.1C107.303 29.9533 107.349 29.8333 107.443 29.74C107.549 29.6467 107.676 29.6 107.823 29.6H110.463C110.609 29.6 110.729 29.6467 110.823 29.74C110.916 29.8333 110.963 29.9533 110.963 30.1V39.5C110.963 39.6333 110.916 39.7533 110.823 39.86C110.729 39.9533 110.609 40 110.463 40H108.023C107.876 40 107.749 39.9533 107.643 39.86C107.549 39.7667 107.503 39.6467 107.503 39.5V38.74C106.809 39.7133 105.703 40.2 104.183 40.2ZM113.734 40C113.6 40 113.48 39.9533 113.374 39.86C113.28 39.7533 113.234 39.6333 113.234 39.5V30.12C113.234 29.9733 113.28 29.8533 113.374 29.76C113.467 29.6533 113.587 29.6 113.734 29.6H116.174C116.32 29.6 116.44 29.6533 116.534 29.76C116.64 29.8533 116.694 29.9733 116.694 30.12V30.88C117.067 30.4667 117.5 30.1533 117.994 29.94C118.5 29.7133 119.06 29.6 119.674 29.6H120.574C120.72 29.6 120.84 29.6467 120.934 29.74C121.027 29.8333 121.074 29.9533 121.074 30.1V32.28C121.074 32.4133 121.027 32.5333 120.934 32.64C120.84 32.7333 120.72 32.78 120.574 32.78H118.554C118.02 32.78 117.607 32.9267 117.314 33.22C117.034 33.5133 116.894 33.9267 116.894 34.46V39.5C116.894 39.6467 116.84 39.7667 116.734 39.86C116.64 39.9533 116.52 40 116.374 40H113.734ZM131.681 40.2C130.374 40.2 129.274 40 128.381 39.6C127.501 39.1867 126.847 38.68 126.421 38.08C126.007 37.48 125.787 36.88 125.761 36.28C125.761 36.16 125.801 36.06 125.881 35.98C125.974 35.9 126.081 35.86 126.201 35.86H128.961C129.121 35.86 129.247 35.8933 129.341 35.96C129.434 36.0133 129.521 36.1067 129.601 36.24C129.854 36.8933 130.554 37.22 131.701 37.22C132.354 37.22 132.861 37.0667 133.221 36.76C133.581 36.4533 133.761 36.04 133.761 35.52C133.761 34.52 133.094 34.02 131.761 34.02H129.521C129.374 34.02 129.247 33.9733 129.141 33.88C129.047 33.7733 129.001 33.6467 129.001 33.5V32.32C129.001 32.0133 129.114 31.7867 129.341 31.64L132.561 29H127.041C126.907 29 126.787 28.9533 126.681 28.86C126.587 28.7533 126.541 28.6333 126.541 28.5V26.52C126.541 26.3733 126.587 26.2533 126.681 26.16C126.774 26.0533 126.894 26 127.041 26H136.361C136.507 26 136.627 26.0533 136.721 26.16C136.814 26.2533 136.861 26.3733 136.861 26.52V28.3C136.861 28.58 136.754 28.8 136.541 28.96L133.581 31.66L133.721 31.7C134.921 31.8733 135.874 32.2867 136.581 32.94C137.287 33.5933 137.641 34.5333 137.641 35.76C137.641 36.6533 137.381 37.44 136.861 38.12C136.354 38.7867 135.647 39.3 134.741 39.66C133.847 40.02 132.827 40.2 131.681 40.2ZM145.101 40.2C143.915 40.2 142.868 39.9933 141.961 39.58C141.055 39.1533 140.348 38.56 139.841 37.8C139.335 37.04 139.081 36.1667 139.081 35.18C139.081 34.0333 139.648 32.6667 140.781 31.08L144.281 26.4C144.468 26.1333 144.708 26 145.001 26H147.801C147.921 26 148.021 26.0467 148.101 26.14C148.195 26.22 148.241 26.32 148.241 26.44C148.241 26.5067 148.208 26.5933 148.141 26.7L145.461 30.34C145.621 30.3 145.808 30.28 146.021 30.28C146.835 30.32 147.621 30.5467 148.381 30.96C149.155 31.3733 149.781 31.94 150.261 32.66C150.755 33.3667 151.001 34.18 151.001 35.1C151.001 36.0333 150.755 36.8933 150.261 37.68C149.768 38.4533 149.075 39.0667 148.181 39.52C147.288 39.9733 146.261 40.2 145.101 40.2ZM145.061 37.2C145.648 37.2 146.148 37.02 146.561 36.66C146.975 36.2867 147.181 35.7867 147.181 35.16C147.181 34.52 146.975 34.02 146.561 33.66C146.161 33.3 145.661 33.12 145.061 33.12C144.461 33.12 143.955 33.3 143.541 33.66C143.141 34.02 142.941 34.52 142.941 35.16C142.941 35.8 143.141 36.3 143.541 36.66C143.955 37.02 144.461 37.2 145.061 37.2ZM158.367 40.2C156.527 40.1867 155.127 39.7 154.167 38.74C153.207 37.78 152.68 36.5133 152.587 34.94C152.56 34.22 152.547 33.5733 152.547 33C152.547 32.4133 152.56 31.7467 152.587 31C152.64 30 152.887 29.1133 153.327 28.34C153.78 27.5533 154.427 26.9333 155.267 26.48C156.12 26.0267 157.154 25.8 158.367 25.8C159.58 25.8 160.614 26.0267 161.467 26.48C162.32 26.9333 162.967 27.5533 163.407 28.34C163.86 29.1133 164.114 30 164.167 31C164.194 31.3733 164.207 32.04 164.207 33C164.207 33.9333 164.194 34.58 164.167 34.94C164.074 36.5133 163.547 37.78 162.587 38.74C161.627 39.7 160.22 40.1867 158.367 40.2ZM158.367 37.18C158.994 37.18 159.46 36.98 159.767 36.58C160.074 36.1667 160.24 35.5867 160.267 34.84C160.294 34.4533 160.307 33.8267 160.307 32.96C160.307 32.0933 160.294 31.48 160.267 31.12C160.24 30.4 160.074 29.8333 159.767 29.42C159.46 28.9933 158.994 28.78 158.367 28.78C157.167 28.78 156.534 29.56 156.467 31.12C156.454 31.48 156.447 32.0933 156.447 32.96C156.447 33.8267 156.454 34.4533 156.467 34.84C156.534 36.4 157.167 37.18 158.367 37.18ZM168.759 31.42C167.879 31.42 167.205 31.2333 166.739 30.86C166.272 30.4733 166.019 29.92 165.979 29.2L165.959 28.66L165.979 28.12C166.019 27.4 166.279 26.8533 166.759 26.48C167.252 26.0933 167.919 25.9 168.759 25.9C169.599 25.9 170.259 26.0933 170.739 26.48C171.232 26.8533 171.499 27.4 171.539 28.12C171.552 28.1867 171.559 28.3667 171.559 28.66C171.559 28.9533 171.552 29.1333 171.539 29.2C171.499 29.92 171.245 30.4733 170.779 30.86C170.312 31.2333 169.639 31.42 168.759 31.42ZM168.759 29.94C168.999 29.94 169.165 29.88 169.259 29.76C169.365 29.6267 169.432 29.4067 169.459 29.1C169.472 29.0333 169.479 28.8867 169.479 28.66C169.479 28.4333 169.472 28.2867 169.459 28.22C169.445 27.94 169.385 27.7333 169.279 27.6C169.172 27.4533 168.999 27.38 168.759 27.38C168.519 27.38 168.345 27.4533 168.239 27.6C168.132 27.7333 168.072 27.94 168.059 28.22L168.039 28.66L168.059 29.1C168.085 29.4067 168.145 29.6267 168.239 29.76C168.345 29.88 168.519 29.94 168.759 29.94Z" fill="#666666"/>
<defs>
<filter id="filter0_d" x="0" y="0" width="197" height="74" filterUnits="userSpaceOnUse" color-interpolation-filters="sRGB">
<feFlood flood-opacity="0" result="BackgroundImageFix"/>
<feColorMatrix in="SourceAlpha" type="matrix" values="0 0 0 0 0 0 0 0 0 0 0 0 0 0 0 0 0 0 127 0"/>
<feOffset dy="4"/>
<feGaussianBlur stdDeviation="2"/>
<feColorMatrix type="matrix" values="0 0 0 0 0 0 0 0 0 0 0 0 0 0 0 0 0 0 0.1 0"/>
<feBlend mode="normal" in2="BackgroundImageFix" result="effect1_dropShadow"/>
<feBlend mode="normal" in="SourceGraphic" in2="effect1_dropShadow" result="shape"/>
</filter>
</defs>
</svg>
