<svg width="111" height="150" viewBox="0 0 111 150" fill="none" xmlns="http://www.w3.org/2000/svg">
<path d="M50.9163 133.24L50.5723 147.69L75.6378 147.936C75.6378 147.936 75.7852 144.987 71.0179 142.775C66.2505 140.563 65.2675 131.815 65.2675 131.815L50.9163 133.24Z" fill="#007888"/>
<path d="M75.9824 148.28L50.1797 148.034L50.5237 132.896L65.5631 131.422L65.6122 131.766C65.6122 131.864 66.6443 140.318 71.1659 142.431C76.0807 144.692 76.0316 147.788 76.0316 147.936L75.9824 148.28ZM50.9169 147.297L75.1961 147.542C75.0486 146.756 74.3605 144.741 70.8219 143.119C66.4477 141.104 65.1699 133.928 64.9241 132.257L51.261 133.634L50.9169 147.297Z" fill="#007888"/>
<path d="M5.79951 127.146L0.442383 140.563L23.8369 149.508C23.8369 149.508 24.9673 146.805 21.2812 143.07C17.595 139.335 19.7084 130.783 19.7084 130.783L5.79951 127.146Z" fill="#007888"/>
<path d="M24.0826 150L0 140.76L5.60289 126.704L20.1998 130.537L20.1016 130.881C20.1016 130.979 18.0865 139.286 21.576 142.824C25.4096 146.658 24.23 149.557 24.1809 149.656L24.0826 150ZM0.933825 140.318L23.5911 149.017C23.7385 148.23 23.7877 146.068 21.0354 143.316C17.6442 139.875 18.922 132.749 19.2661 131.078L5.99607 127.588L0.933825 140.318Z" fill="#007888"/>
<path d="M23.8861 68.3155C19.8068 75.098 18.0866 94.02 13.565 103.702C9.04334 113.384 3.73535 129.013 3.73535 129.013L22.3133 136.877C22.3133 136.877 34.9444 108.617 36.3697 93.8725C37.795 79.1281 37.451 66.3496 37.451 66.3496L23.8861 68.3155Z" fill="#2E2F32"/>
<path d="M31.749 75.6879C32.1422 83.5516 42.2176 98.3943 43.8395 109.01C45.4614 119.626 49.6881 138.745 49.6881 138.745L69.4948 135.01C69.4948 135.01 66.8899 105.324 58.289 86.992C51.998 73.5745 42.9548 64.6787 42.9548 64.6787L31.749 75.6879Z" fill="#2E2F32"/>
<path d="M35.8775 88.4664C35.73 88.4664 35.6317 88.4173 35.5334 88.2698L34.3047 86.0582L30.6186 84.7312C30.422 84.682 30.3237 84.4363 30.3729 84.2397C30.422 84.0431 30.6678 83.9448 30.8644 83.994L34.7962 85.3701L36.1232 87.8275C36.2215 88.0241 36.1724 88.2207 35.9758 88.319C36.0249 88.4664 35.9758 88.4664 35.8775 88.4664Z" fill="white"/>
<path d="M19.6586 138.253C18.9213 138.647 18.135 139.089 17.3978 139.482C17.1029 139.629 17.3486 140.072 17.6435 139.924C18.3807 139.531 19.1671 139.089 19.9043 138.696C20.15 138.499 19.9043 138.057 19.6586 138.253Z" fill="#030047"/>
<path d="M20.0038 139.777C19.414 140.269 18.7751 140.711 18.1853 141.203C17.9395 141.399 18.1853 141.841 18.431 141.645L20.2495 140.22C20.4953 140.023 20.2495 139.581 20.0038 139.777Z" fill="#030047"/>
<path d="M67.8248 139.187C67.5299 139.826 67.235 140.416 66.891 141.055C66.7436 141.35 67.1859 141.596 67.3333 141.301L68.2672 139.433C68.4146 139.138 67.9723 138.892 67.8248 139.187Z" fill="#030047"/>
<path d="M69.2501 140.858C68.9552 141.497 68.6603 142.087 68.3163 142.726C68.1689 143.021 68.6112 143.266 68.7586 142.972L69.6924 141.104C69.7907 140.809 69.3976 140.563 69.2501 140.858Z" fill="#030047"/>
<path d="M65.662 134.42C65.4654 134.42 65.318 134.273 65.318 134.076C64.5316 105.57 47.5755 74.5577 47.4281 74.2628C47.3298 74.0662 47.3789 73.8696 47.5755 73.7713C47.7721 73.673 47.9687 73.7222 48.067 73.9188C48.2144 74.2137 65.2197 105.374 66.0552 134.076C66.006 134.223 65.8586 134.42 65.662 134.42Z" fill="white"/>
<path d="M50.8193 80.6029C50.7701 80.6029 50.721 80.6029 50.6718 80.6029C50.4752 80.5537 50.3769 80.308 50.4752 80.1114C51.4091 77.6049 50.2786 74.1645 50.2786 74.1153C50.2295 73.9187 50.3278 73.7221 50.5244 73.6239C50.721 73.5747 50.9176 73.673 51.0159 73.8696C51.065 74.017 52.2937 77.6049 51.2125 80.3571C51.1142 80.5046 50.9667 80.6029 50.8193 80.6029Z" fill="white"/>
<path d="M48.2635 25.2622C49.7871 28.8991 49.8854 32.7818 45.118 34.3054C41.8742 35.3375 37.9915 33.8139 36.4679 30.177C34.9443 26.54 36.3696 22.5099 39.6134 21.1337C42.8572 19.7576 46.7399 21.6252 48.2635 25.2622Z" fill="white"/>
<path d="M43.0532 34.9934C40.1535 34.9934 37.3029 33.2241 36.1234 30.3243C35.337 28.5059 35.2879 26.4908 35.8776 24.6723C36.5166 22.8538 37.7944 21.4777 39.4654 20.7896C42.9058 19.3643 46.9851 21.2811 48.607 25.1146C49.6883 27.7195 49.8357 29.9311 49.0985 31.6022C48.4596 33.0275 47.1325 34.0104 45.2649 34.6494C44.5277 34.8951 43.7905 34.9934 43.0532 34.9934ZM41.8737 21.0845C41.1856 21.0845 40.4484 21.2319 39.7603 21.5268C38.2859 22.1657 37.1555 23.3453 36.6149 24.9672C36.0742 26.5891 36.1234 28.4076 36.8115 30.0786C38.3351 33.6664 42.1686 34.8951 45.0192 33.9613C46.7394 33.4206 47.8698 32.536 48.4104 31.3073C49.0985 29.8328 48.951 27.8178 47.9189 25.4095C46.8377 22.7555 44.3311 21.0845 41.8737 21.0845Z" fill="#2E2F32"/>
<path d="M45.5603 25.4097C45.8318 25.4097 46.0518 25.1897 46.0518 24.9182C46.0518 24.6468 45.8318 24.4268 45.5603 24.4268C45.2889 24.4268 45.0688 24.6468 45.0688 24.9182C45.0688 25.1897 45.2889 25.4097 45.5603 25.4097Z" fill="#2E2F32"/>
<path d="M45.9526 20.3474C45.9526 17.1036 40.5955 20.7406 39.6617 21.1829C36.762 21.7235 34.2063 25.5571 35.0909 28.9483C35.8282 31.8481 39.1702 35.2884 40.9395 34.4529C43.8393 32.7327 44.2816 29.8821 42.9546 27.179C43.4461 26.5892 42.8563 25.7045 43.1021 25.0165C43.3969 23.8861 45.9526 21.4778 45.9526 20.3474Z" fill="#2E2F32"/>
<path d="M41.9225 26.8845C36.5162 26.393 37.1551 30.718 39.1702 31.701C40.8412 32.4874 43.3969 32.1925 44.429 29.7351C45.4611 27.3268 41.9225 26.8845 41.9225 26.8845Z" fill="white"/>
<path d="M42.415 28.7516C41.3829 28.211 40.105 28.4567 39.3678 29.3906C39.1712 29.6363 39.5152 29.9803 39.7118 29.7346C40.3016 28.9974 41.3337 28.7517 42.1692 29.194C42.415 29.3414 42.6607 28.8991 42.415 28.7516Z" fill="#2E2F32"/>
<path d="M48.7057 26.4909C48.165 25.5571 47.477 24.6724 46.6415 23.9352C46.3957 23.7386 46.0517 24.0826 46.2974 24.2792C47.0838 25.0164 47.7227 25.8028 48.2634 26.7366C48.4108 26.9824 48.8531 26.7366 48.7057 26.4909Z" fill="#2E2F32"/>
<path d="M25.2127 74.3609H24.9178C24.7212 74.3609 20.5436 74.1643 15.6288 70.0359L15.1865 69.6918L28.1616 63.4009L25.2127 74.3609ZM16.5135 69.8393C20.347 72.8864 23.6891 73.4762 24.6229 73.5745L26.9821 64.7279L16.5135 69.8393Z" fill="#2E2F32"/>
<path d="M9.97809 49.443C8.01217 56.0288 9.53575 66.3499 14.7946 70.0852C14.7946 70.0852 21.4296 67.7752 23.0023 68.1192C24.6734 65.2687 26.5902 62.6147 28.3595 59.8132C26.0987 58.9286 24.0836 58.2405 23.6413 55.6848C22.3634 48.8041 30.522 50.2785 35.9283 51.9004C37.2553 46.5924 37.7468 38.2864 37.7468 38.2864C24.6242 34.9443 13.1236 39.0727 9.97809 49.443Z" fill="#007888"/>
<path d="M14.7438 70.5277L14.5963 70.4294C9.28834 66.645 7.61729 56.1765 9.63236 49.3449C12.7287 38.9747 24.0328 34.4039 37.7942 37.9426L38.0891 38.0409V38.3357C38.0891 38.434 37.5976 46.7401 36.2706 51.9989L36.1723 52.3921L35.7791 52.2938C30.2254 50.6228 26.441 50.5245 24.8191 51.9498C23.9836 52.7361 23.6887 53.9648 23.9836 55.6359C24.4259 57.9458 26.1953 58.6339 28.4069 59.4694L28.8493 59.6169L28.6527 60.01C28.0629 60.9439 27.424 61.8777 26.8342 62.8115C25.6546 64.5808 24.4259 66.4485 23.3447 68.3161L23.1972 68.5618L22.9515 68.5127C21.8702 68.2669 17.5944 69.5448 14.9895 70.4786L14.7438 70.5277ZM10.3696 49.5907C8.40366 56.0782 9.92725 66.0061 14.8912 69.7414C16.0708 69.3482 21.0347 67.6772 22.8041 67.7755C23.8853 65.957 25.0649 64.1876 26.1953 62.4674C26.7359 61.6811 27.2765 60.8947 27.768 60.0592C25.6055 59.2237 23.6887 58.3882 23.2464 55.7833C22.9023 53.8174 23.2464 52.3429 24.2785 51.4091C26.097 49.7872 29.8814 49.7873 35.5826 51.4583C36.6638 46.8384 37.1553 40.1051 37.3028 38.5815C24.1311 35.2886 13.3185 39.7119 10.3696 49.5907Z" fill="#007888"/>
<path d="M29.2917 68.1686H16.12C14.793 68.1686 13.6626 67.0873 13.6626 65.7112V46.9857C13.6626 45.6587 14.7439 44.5283 16.12 44.5283H29.2917C30.6187 44.5283 31.7491 45.6096 31.7491 46.9857V65.7112C31.7491 67.0873 30.6678 68.1686 29.2917 68.1686Z" fill="white"/>
<path d="M29.2915 68.5124H16.1198C14.5962 68.5124 13.3184 67.2345 13.3184 65.7109V46.9855C13.3184 45.4619 14.5962 44.1841 16.1198 44.1841H29.2915C30.8151 44.1841 32.0929 45.4619 32.0929 46.9855V65.7109C32.0929 67.2837 30.8642 68.5124 29.2915 68.5124ZM16.169 44.9213C15.0386 44.9213 14.1047 45.8551 14.1047 46.9855V65.7109C14.1047 66.8413 15.0386 67.7752 16.169 67.7752H29.3407C30.4711 67.7752 31.4049 66.8413 31.4049 65.7109V46.9855C31.4049 45.8551 30.4711 44.9213 29.3407 44.9213H16.169Z" fill="#2E2F32"/>
<path d="M17.251 44.5283H16.1698C14.8428 44.5283 13.7124 45.6096 13.7124 46.9857V65.7112C13.7124 67.0382 14.7937 68.1686 16.1698 68.1686H17.251V44.5283Z" fill="#2E2F32"/>
<path d="M41.6286 38.3847C33.9615 36.7136 30.8652 40.3506 28.1129 51.5564C25.3606 62.7622 20.4458 69.2497 20.4458 69.2497C20.4458 69.2497 42.759 75.5407 52.2446 74.1645C52.2446 74.2137 57.9458 41.9233 41.6286 38.3847Z" fill="#007888"/>
<path d="M49.0497 74.8036C38.6795 74.8036 21.1337 69.8887 20.3473 69.643L19.8066 69.4956L20.1507 69.0532C20.1998 69.0041 25.0655 62.4674 27.7686 51.4582C30.6684 39.6135 34.0596 36.3206 41.7267 37.9916C48.5583 39.4661 52.5884 46.2485 53.4239 57.5526C54.0137 66.006 52.6376 74.1646 52.5884 74.2138L52.5393 74.4595L52.2935 74.5086C51.3106 74.7544 50.2293 74.8036 49.0497 74.8036ZM21.0353 69.1024C24.3774 69.987 43.2994 75.0001 51.9003 73.9189C52.3918 70.8226 56.5202 42.0218 41.5792 38.778C34.3545 37.2053 31.3073 40.2033 28.5059 51.704C26.1467 61.2387 22.1657 67.4313 21.0353 69.1024Z" fill="#007888"/>
<path d="M35.5352 39.7118L36.3215 35.8291L46.7901 37.0086L45.5122 41.7269L35.5352 39.7118Z" fill="#007888"/>
<path d="M45.8058 42.1691L35.1406 39.9575L36.0745 35.3867L47.2802 36.6646L45.8058 42.1691ZM35.9761 39.4169L45.2651 41.3336L46.2972 37.3526L36.6151 36.2714L35.9761 39.4169Z" fill="#007888"/>
<path d="M82.2257 31.9951C82.0783 29.4885 80.2106 29.0462 80.2106 29.0462C80.0632 27.5717 77.9498 27.1294 77.9498 27.1294C78.5396 24.328 79.4243 23.3942 78.9819 22.5587C78.343 21.2808 77.1635 22.1655 75.7873 24.9669C75.4924 24.7212 75.0501 24.7212 74.2637 25.3109C72.4944 26.6379 71.7572 30.2258 72.2978 34.4033C72.2978 34.4033 72.2978 34.4033 72.2978 34.4525C72.1503 34.7965 72.0029 35.0914 71.8555 35.3372L78.4905 44.0364C78.4905 44.0364 80.014 43.1026 80.4072 40.0062C80.653 38.2861 80.9479 35.7795 81.1936 34.5016C82.668 34.6982 82.324 33.2238 82.2257 31.9951Z" fill="white"/>
<path d="M78.4404 44.528L71.4614 35.3373L71.5597 35.1407C71.7071 34.895 71.8546 34.6493 71.9529 34.3544C71.3631 30.0785 72.1986 26.3924 74.0663 25.0162C74.7052 24.5739 75.1967 24.3773 75.639 24.4756C76.622 22.5588 77.4575 21.625 78.2439 21.625C78.5387 21.625 78.9811 21.7724 79.276 22.4114C79.5708 23.0503 79.3742 23.6401 79.0302 24.5739C78.8336 25.1637 78.5387 25.9009 78.3422 26.933C78.9811 27.1296 80.2589 27.6702 80.5047 28.8498C81.0453 29.0955 82.4214 29.8327 82.5197 32.0444C82.5197 32.241 82.5689 32.3884 82.5689 32.585C82.618 33.4205 82.7163 34.256 82.2248 34.6984C82.0282 34.895 81.7825 34.9441 81.4876 34.9441C81.291 35.9271 81.0944 37.4015 80.947 38.6794C80.8979 39.1709 80.7995 39.6623 80.7504 40.0555C80.3081 43.2993 78.7353 44.3314 78.637 44.3806L78.4404 44.528ZM72.3461 35.2882L78.5879 43.4959C78.9811 43.1027 79.8166 42.0214 80.1115 39.9572C80.1606 39.5149 80.2098 39.0726 80.3081 38.5811C80.5047 37.1066 80.7013 35.3864 80.947 34.4526L81.0453 34.1086L81.3893 34.1578C81.5368 34.2069 81.7825 34.2069 81.8808 34.1086C82.0774 33.912 82.0282 33.1748 81.9791 32.585C81.9791 32.3884 81.93 32.1918 81.93 32.0444C81.8317 29.8819 80.2589 29.4396 80.2098 29.4396L79.964 29.3904L79.9149 29.1446C79.8166 27.9651 77.9489 27.5719 77.9489 27.5228L77.6049 27.4245L77.7032 27.0804C77.9489 25.8517 78.293 24.9671 78.4896 24.279C78.7845 23.4435 78.9319 23.0503 78.7353 22.7063C78.5879 22.4605 78.4896 22.3131 78.3422 22.3131C78.1947 22.3131 77.5066 22.4605 76.2288 25.1145L76.0322 25.5568L75.6881 25.2128C75.4424 25.0162 74.9018 25.4094 74.6561 25.5568C73.0342 26.7855 72.2969 30.2751 72.8376 34.3052V34.4035L72.7884 34.5018C72.5918 34.7967 72.4444 35.0424 72.3461 35.2882Z" fill="#2E2F32"/>
<path d="M76.1316 24.5737L69.1034 31.6511C68.2679 32.4866 69.5949 33.8136 70.7253 32.6832L74.8046 28.653C75.0012 27.326 75.2961 25.999 76.1316 24.5737Z" fill="#2E2F32"/>
<path d="M80.112 21.8708C79.9154 21.6742 79.2765 21.8708 78.7358 22.1165C79.2273 22.7554 79.0307 23.6892 78.8341 24.4756L79.3748 23.935C79.8171 23.4927 80.456 22.2148 80.112 21.8708Z" fill="#2E2F32"/>
<path d="M77.5076 27.965L77.1635 28.9479C77.0652 29.2428 77.5076 29.3903 77.655 29.0954C77.7533 28.7513 77.9008 28.4564 77.999 28.1124C78.0973 27.8175 77.6059 27.7192 77.5076 27.965Z" fill="#2E2F32"/>
<path d="M81.8322 32.0936C81.7831 31.7987 81.2916 31.897 81.3407 32.241C81.3899 32.6342 81.3408 33.0274 81.1933 33.4206C81.095 33.7154 81.5373 33.8629 81.6848 33.568C81.8814 33.0765 81.8814 32.585 81.8322 32.0936Z" fill="#2E2F32"/>
<path d="M75.6397 25.0163C75.0499 26.1467 74.411 28.0143 74.2144 29.2922C74.1652 29.5871 74.6567 29.7346 74.7059 29.4397C74.9025 28.211 75.4922 26.3925 76.082 25.3112C76.2295 24.9672 75.7871 24.7214 75.6397 25.0163Z" fill="#2E2F32"/>
<path d="M79.6695 29.4395C79.5712 29.6361 79.5221 29.8819 79.4238 30.0785C79.3255 30.3734 79.7678 30.5208 79.9153 30.2259C80.0136 30.0293 80.0627 29.7836 80.161 29.587C80.2593 29.2921 79.817 29.1447 79.6695 29.4395Z" fill="#2E2F32"/>
<path d="M72.1014 34.9443C69.4965 40.154 67.8255 42.0708 64.7292 42.9555C60.0601 44.3316 48.9035 38.1881 41.9244 39.3185L40.2534 53.6206C40.2534 53.6206 50.3779 60.2064 62.0751 59.2726C72.1997 58.4371 78.9329 48.0669 80.1616 42.9555C78.9329 39.6134 74.8537 36.812 72.1014 34.9443Z" fill="#007888"/>
<path d="M59.7155 59.764C49.0504 59.764 40.1054 54.0137 40.0072 53.9646L39.8105 53.8171L41.5307 39.0236L41.8256 38.9744C45.5117 38.3355 50.23 39.7116 54.7516 40.9895C58.6834 42.1199 62.4187 43.2011 64.5812 42.5622C67.5301 41.7267 69.152 39.9574 71.7568 34.7477L71.9534 34.3545L72.2974 34.6002C75.0497 36.4679 79.2273 39.2693 80.5051 42.8079L80.5543 42.9062L80.5051 43.0045C79.2273 48.2142 72.3466 58.7811 62.1238 59.6166C61.2883 59.7149 60.5019 59.764 59.7155 59.764ZM40.6461 53.4731C42.0714 54.3577 51.4586 59.8132 62.0255 58.9285C71.8551 58.1422 78.4901 48.0668 79.7679 43.0045C78.5884 39.8591 74.9023 37.3034 72.2483 35.4849C69.6926 40.5963 67.9233 42.4148 64.8269 43.2994C62.4678 43.9875 58.6343 42.8571 54.555 41.7267C50.4265 40.5472 45.7575 39.171 42.2188 39.6625L40.6461 53.4731Z" fill="#007888"/>
<path d="M51.1633 58.3385C51.1141 58.3385 51.065 58.3385 51.0159 58.2894C51.0159 58.2894 49.2957 57.5522 47.6247 57.5522C47.4281 57.5522 47.2806 57.4047 47.2314 57.2081C47.2314 57.0116 47.4281 56.8149 47.6247 56.8149C49.4431 56.8149 51.2125 57.5522 51.3108 57.6013C51.5074 57.6996 51.6056 57.8962 51.5073 58.0928C51.409 58.2403 51.3107 58.3385 51.1633 58.3385Z" fill="#2E2F32"/>
<path d="M95.3469 22.6079H79.7178C79.5212 22.6079 79.3246 22.4605 79.3246 22.2147C79.3246 21.969 79.4721 21.8215 79.7178 21.8215H94.6097V1.81828H73.6726V11.7953C73.6726 11.9919 73.5251 12.1885 73.2794 12.1885C73.0337 12.1885 72.8862 12.0411 72.8862 11.7953V1.08105H95.3469V22.6079Z" fill="#2E2F32"/>
<path d="M89.7437 5.25883C89.2523 5.01309 88.6625 5.16053 88.4168 5.65201L83.6985 14.3512L80.7988 11.304C80.4548 10.96 79.9141 10.8617 79.5209 11.1074C78.9803 11.4515 78.9312 12.1395 79.3244 12.5819L82.6664 16.1697L83.4037 16.9561C83.7477 17.3001 84.2883 17.251 84.5341 16.8086L85.0747 15.8748L90.137 6.58583C90.3827 6.09435 90.1861 5.50457 89.7437 5.25883Z" fill="#007888"/>
<path d="M96.4287 0H93.4307V2.99802H96.4287V0Z" fill="#2E2F32"/>
<path d="M83.9841 58.8764L79.3804 69.2544L89.7583 73.8581L94.362 63.4802L83.9841 58.8764Z" fill="white"/>
<path d="M89.9904 74.3608L78.9321 69.446L83.8469 58.3877L94.9053 63.3025L89.9904 74.3608ZM79.866 69.0528L89.5973 73.3779L93.9223 63.6465L84.191 59.3215L79.866 69.0528Z" fill="#2E2F32"/>
<path d="M82.3232 47.1331L92.9884 56.3238C92.9884 56.3238 97.1168 49.5905 92.9884 45.8061C87.8278 41.0879 82.3232 47.1331 82.3232 47.1331Z" fill="white"/>
<path d="M93.0874 56.9136L81.8325 47.1823L82.0783 46.8874C82.1766 46.74 84.9289 43.7911 88.4184 43.6436C90.1877 43.5453 91.8096 44.1843 93.2349 45.5113C97.5599 49.4431 93.4806 56.2255 93.284 56.5204L93.0874 56.9136ZM82.8646 47.1332L92.8908 55.7832C93.6772 54.3579 96.0363 49.1482 92.7434 46.101C91.4164 44.9215 89.9911 44.3317 88.4675 44.3809C85.8627 44.5283 83.6018 46.3959 82.8646 47.1332Z" fill="#2E2F32"/>
<path d="M88.5649 57.6509C90.2207 57.6509 91.563 56.3086 91.563 54.6528C91.563 52.9971 90.2207 51.6548 88.5649 51.6548C86.9092 51.6548 85.5669 52.9971 85.5669 54.6528C85.5669 56.3086 86.9092 57.6509 88.5649 57.6509Z" fill="white"/>
<path d="M88.5657 57.9947C86.6981 57.9947 85.2236 56.4711 85.2236 54.6526C85.2236 52.8341 86.7472 51.3105 88.5657 51.3105C90.3842 51.3105 91.9078 52.8341 91.9078 54.6526C91.9078 56.4711 90.4333 57.9947 88.5657 57.9947ZM88.5657 52.0478C87.1404 52.0478 85.9609 53.2273 85.9609 54.6526C85.9609 56.0779 87.1404 57.2575 88.5657 57.2575C89.991 57.2575 91.1705 56.0779 91.1705 54.6526C91.1705 53.2273 90.0401 52.0478 88.5657 52.0478Z" fill="#2E2F32"/>
<path d="M96.6262 76.622C96.5279 76.622 96.3805 76.5729 96.3313 76.4746L94.6603 74.2138C94.562 74.0663 94.562 73.8206 94.7586 73.7223C94.906 73.624 95.1518 73.624 95.2501 73.8206L96.9211 76.0814C97.0194 76.2288 97.0194 76.4746 96.8228 76.5729C96.7736 76.622 96.6753 76.622 96.6262 76.622Z" fill="#2E2F32"/>
<path d="M61.8287 68.5125C61.7304 68.5125 61.6321 68.4634 61.5338 68.4142C61.3864 68.2668 61.3864 68.021 61.583 67.8736L65.4165 64.4332C65.5639 64.2858 65.8097 64.2858 65.9571 64.4824C66.1046 64.6298 66.1046 64.8756 65.908 65.023L62.0744 68.4634C61.9761 68.5125 61.927 68.5125 61.8287 68.5125Z" fill="#2E2F32"/>
<path d="M76.573 61.4349C76.4747 61.4349 76.3765 61.3858 76.2782 61.2875L74.902 59.6165C74.7546 59.469 74.8037 59.2233 74.9512 59.0758C75.0986 58.9284 75.3443 58.9775 75.4918 59.125L76.8679 60.796C77.0154 60.9435 76.9662 61.1892 76.8188 61.3366C76.7205 61.4349 76.6713 61.4349 76.573 61.4349Z" fill="#2E2F32"/>
<path d="M94.9547 29.194C94.8564 29.194 94.8073 29.1449 94.709 29.0957C94.5615 28.9483 94.5124 28.7517 94.6598 28.5551L96.3309 26.54C96.4783 26.3926 96.6749 26.3434 96.8715 26.4909C97.0189 26.6383 97.0681 26.8349 96.9207 27.0315L95.2496 29.0466C95.1513 29.1449 95.053 29.194 94.9547 29.194Z" fill="#2E2F32"/>
<path d="M110.486 47.5261C110.388 47.5261 110.289 47.477 110.191 47.3787L106.751 43.2503C106.603 43.1028 106.652 42.8571 106.8 42.7096C106.947 42.5622 107.193 42.6113 107.34 42.7588L110.781 46.8872C110.928 47.0347 110.879 47.2804 110.732 47.4278C110.633 47.5261 110.584 47.5261 110.486 47.5261Z" fill="#2E2F32"/>
<path d="M68.8075 12.2379C68.7583 12.2379 68.7583 12.2379 68.7092 12.2379L65.5637 11.5007C65.3671 11.4515 65.2197 11.2549 65.2688 11.0583C65.318 10.8617 65.5146 10.7143 65.7111 10.7634L68.8566 11.5007C69.0532 11.5498 69.2007 11.7464 69.1515 11.943C69.1024 12.1396 68.9549 12.2379 68.8075 12.2379Z" fill="#2E2F32"/>
<path d="M101.148 33.3228H85.7646V48.7061H101.148V33.3228Z" fill="white"/>
<path d="M101.491 49.0498H85.3701V32.9292H101.491V49.0498ZM86.1073 48.3125H100.753V33.6664H86.1073V48.3125Z" fill="#2E2F32"/>
<path d="M91.6123 70.1343H68.5127V93.2339H91.6123V70.1343Z" fill="white"/>
<path d="M92.0053 93.6269H68.1685V69.79H92.0053V93.6269ZM68.8565 92.8896H91.2189V70.5273H68.8565V92.8896Z" fill="#2E2F32"/>
<path d="M96.6259 44.5772C96.5276 44.5772 96.4294 44.5281 96.3802 44.4789L89.991 38.0897C89.8435 37.9422 89.8435 37.6965 89.991 37.5491C90.1384 37.4016 90.3842 37.4016 90.5316 37.5491L96.8717 43.8891C97.0191 44.0366 97.0191 44.2823 96.8717 44.4298C96.8225 44.5281 96.7242 44.5772 96.6259 44.5772Z" fill="#2E2F32"/>
<path d="M90.2367 44.5774C90.1384 44.5774 90.0401 44.5283 89.991 44.4791C89.8435 44.3317 89.8435 44.0859 89.991 43.9385L96.3311 37.5984C96.4785 37.4509 96.7242 37.4509 96.8717 37.5984C97.0191 37.7458 97.0191 37.9915 96.8717 38.139L90.5316 44.4791C90.4333 44.5283 90.335 44.5774 90.2367 44.5774Z" fill="#2E2F32"/>
<path d="M85.173 78.0471H75.1959C74.9993 78.0471 74.8027 77.8997 74.8027 77.6539C74.8027 77.4082 74.9502 77.2607 75.1959 77.2607H85.173C85.3696 77.2607 85.5661 77.4082 85.5661 77.6539C85.5661 77.8997 85.3696 78.0471 85.173 78.0471Z" fill="#2E2F32"/>
<path d="M85.173 81.1926H75.1959C74.9993 81.1926 74.8027 81.0452 74.8027 80.7995C74.8027 80.5537 74.9502 80.4062 75.1959 80.4062H85.173C85.3696 80.4062 85.5661 80.5537 85.5661 80.7995C85.5661 81.0452 85.3696 81.1926 85.173 81.1926Z" fill="#2E2F32"/>
<path d="M85.1739 84.2888H83.1588C82.9622 84.2888 82.7656 84.1414 82.7656 83.8956C82.7656 83.6499 82.9131 83.5024 83.1588 83.5024H85.1739C85.3705 83.5024 85.567 83.6499 85.567 83.8956C85.567 84.1414 85.3705 84.2888 85.1739 84.2888Z" fill="#2E2F32"/>
<path d="M81.2903 84.2888H75.1959C74.9993 84.2888 74.8027 84.1414 74.8027 83.8956C74.8027 83.6499 74.9502 83.5024 75.1959 83.5024H81.2903C81.4869 83.5024 81.6835 83.6499 81.6835 83.8956C81.6835 84.1414 81.4869 84.2888 81.2903 84.2888Z" fill="#2E2F32"/>
</svg>
