<svg width="107" height="45" viewBox="0 0 107 45" fill="none" xmlns="http://www.w3.org/2000/svg">
<path d="M38.648 6.28882H37.1417V19.0062H38.648V6.28882Z" fill="#001F33"/>
<path d="M41.9903 6.28882H43.9674L48.0158 17.0963H48.0629L52.0171 6.28882H54.0413V19.0062H52.535V8.71118H52.4879C52.2996 9.36335 52.0171 10.2019 51.6876 11.0404L48.6278 19.0062H47.2626L44.2499 11.0404C43.9203 10.2019 43.732 9.64286 43.4496 8.66459H43.4025V19.0062H41.9903V6.28882Z" fill="#001F33"/>
<path d="M62.1852 6.00928C58.9842 6.00928 56.6305 8.52481 56.6305 12.6242C56.6305 16.7236 59.0313 19.2391 62.1852 19.2391C65.3863 19.2391 67.6929 16.7236 67.6929 12.6242C67.6929 8.52481 65.3392 6.00928 62.1852 6.00928ZM62.1852 17.8882C59.8315 17.8882 58.1839 15.9782 58.1839 12.6242C58.1839 9.31673 59.8315 7.40679 62.1852 7.40679C64.4919 7.40679 66.1866 9.31673 66.1866 12.6242C66.1866 15.9316 64.4919 17.8882 62.1852 17.8882Z" fill="#001F33"/>
<path d="M76.8724 12.4379C78.1905 12.1118 79.2732 11.1801 79.2732 9.45652C79.2732 7.36025 77.6727 6.28882 74.8953 6.28882H70.282V19.0062H75.2248C78.0964 19.0062 79.6498 17.6553 79.6498 15.5124C79.6498 13.6491 78.4259 12.7174 76.8724 12.4379ZM71.7413 7.59317H74.707C76.7783 7.59317 77.7198 8.19876 77.7198 9.68944C77.7198 11.1335 76.59 11.8323 74.6599 11.8323H71.6942V7.59317H71.7413ZM75.1307 17.6553H71.7884V13.1366H74.8482C76.9195 13.1366 78.1905 13.8354 78.1905 15.4193C78.1434 16.8634 77.2019 17.6553 75.1307 17.6553Z" fill="#001F33"/>
<path d="M89.6766 6.28882H86.2873V19.0062H89.6766C93.7721 19.0062 96.1729 16.9099 96.1729 12.6242C96.1729 8.33851 93.8192 6.28882 89.6766 6.28882ZM89.912 17.6087H87.8407V7.63975H89.8649C92.9718 7.63975 94.6665 9.13043 94.6665 12.5776C94.6665 16.118 93.0189 17.6087 89.912 17.6087Z" fill="#001F33"/>
<path d="M98.7149 6.28882H106.623V7.63975H100.268V11.646H104.976V12.9969H100.268V17.6087H107V19.0062H98.7149V6.28882Z" fill="#001F33"/>
<path d="M45.7092 30.885C47.2626 30.559 48.5807 29.5341 48.5807 27.3913C48.5807 24.3633 45.9446 23.6646 43.1672 23.6646H37.1417V38.6645H43.4967C46.3212 38.6645 49.0044 37.5465 49.0044 34.5186C49.0044 32.1428 47.5451 31.2111 45.7092 30.885ZM40.3898 26.2267H42.8847C44.6736 26.2267 45.3797 26.8788 45.3797 28.0434C45.3797 29.208 44.5794 29.8602 42.8377 29.8602H40.3898V26.2267ZM43.073 36.1956H40.3898V32.236H42.9318C44.7677 32.236 45.7563 32.8882 45.7563 34.1925C45.7563 35.4503 44.9089 36.1956 43.073 36.1956Z" fill="#001F33"/>
<path d="M58.0427 23.385C54.3709 23.385 50.8874 25.9005 50.8874 31.1645C50.8874 36.4285 54.3709 38.944 58.0427 38.944C61.6674 38.944 65.1509 36.4285 65.1509 31.1645C65.198 25.9005 61.7145 23.385 58.0427 23.385ZM58.0427 36.3353C55.6889 36.3353 54.2296 34.3322 54.2296 31.2111C54.2296 28.09 55.6889 26.18 58.0427 26.18C60.3964 26.18 61.8557 28.09 61.8557 31.2111C61.8557 34.3322 60.3964 36.3353 58.0427 36.3353Z" fill="#001F33"/>
<path d="M67.5988 23.7112H70.941V36.0093H77.6256V38.6646H67.5988V23.7112Z" fill="#001F33"/>
<path d="M78.6613 35.2639L81.2033 33.7732C82.0506 35.4036 83.557 36.3353 85.2987 36.3353C86.8522 36.3353 87.9349 35.7763 87.9349 34.6117C87.9349 33.4937 86.8522 32.9813 84.8751 32.4223C82.1918 31.6769 79.3674 30.9782 79.3674 27.8571C79.3674 25.062 81.5799 23.385 84.828 23.385C87.9349 23.385 89.7708 24.8757 90.8535 26.4595L88.5469 28.1831C87.7466 26.9254 86.2873 26.0403 84.828 26.0403C83.4158 26.0403 82.6155 26.6459 82.6155 27.531C82.6155 28.7422 83.7453 29.1614 85.7224 29.7204C88.4056 30.4192 91.2301 31.2577 91.2301 34.3788C91.2301 36.8012 89.3942 38.944 85.1575 38.944C81.8152 38.9906 79.744 37.4067 78.6613 35.2639Z" fill="#001F33"/>
<path d="M99.8447 23.385C96.1729 23.385 92.6894 25.9005 92.6894 31.1645C92.6894 36.4285 96.1729 38.944 99.8447 38.944C103.469 38.944 106.953 36.4285 106.953 31.1645C107 25.9005 103.517 23.385 99.8447 23.385ZM99.8447 36.3353C97.491 36.3353 96.0317 34.3322 96.0317 31.2111C96.0317 28.09 97.491 26.18 99.8447 26.18C102.198 26.18 103.658 28.09 103.658 31.2111C103.658 34.3322 102.198 36.3353 99.8447 36.3353Z" fill="#001F33"/>
<path d="M15.4875 45.0001C14.593 45.0001 13.6986 44.7206 12.9454 44.1615L12.8513 44.0684L1.69468 35.3106C1.55345 35.1709 1.41223 35.0777 1.27101 34.9379L1.17686 34.8448C0.847338 34.4721 0.564892 34.0994 0.376595 33.6336C0.376595 33.587 0.32952 33.5404 0.32952 33.4938C0.235372 33.2609 0.188297 33.028 0.0941487 32.7951C0.0941487 32.7485 0 32.2361 0 31.91V16.3044C0 14.0218 1.88297 12.1584 4.18962 12.1584H26.8324C29.139 12.1584 31.022 14.0218 31.022 16.3044V31.9566C31.022 32.1895 30.9749 32.4224 30.9278 32.7019C30.9278 32.7485 30.9278 32.7951 30.9278 32.8417C30.8808 33.0746 30.7866 33.3075 30.6925 33.5404L30.6454 33.6336C30.4571 34.0994 30.1747 34.4721 29.8451 34.8448C29.7981 34.8914 29.7981 34.9379 29.751 34.9379C29.6098 35.0777 29.4685 35.1709 29.3273 35.3106L18.0766 44.1615C17.3234 44.7206 16.4289 45.0001 15.4875 45.0001ZM14.3106 42.0187L14.4518 42.1119C14.7343 42.3448 15.1109 42.4845 15.4875 42.4845C15.8641 42.4845 16.2407 42.3448 16.5231 42.1119L16.6643 42.0187L27.7739 33.3075C27.8209 33.2609 27.868 33.2143 27.9622 33.1678L28.0092 33.1212C28.1505 32.9814 28.2446 32.8417 28.3388 32.6553V32.6088C28.3858 32.5156 28.3858 32.4224 28.4329 32.3293V32.2827C28.4329 32.1429 28.48 32.0497 28.48 32.0032V16.3044C28.48 15.4193 27.7268 14.674 26.8324 14.674H4.18962C3.2952 14.674 2.54202 15.4193 2.54202 16.3044V31.9566C2.54202 32.0032 2.58909 32.2361 2.58909 32.3293C2.58909 32.4224 2.63616 32.5156 2.68324 32.5622V32.6088C2.77739 32.7951 2.87154 32.9348 3.01276 33.0746L3.05983 33.1212C3.10691 33.1678 3.20106 33.2143 3.24813 33.2609L3.2952 33.3075L14.3106 42.0187Z" fill="#007788"/>
<path d="M4.94282 8.19873H3.48352V14.2546H4.94282V8.19873Z" fill="#007788"/>
<path d="M27.4914 5.823H26.0321V14.2547H27.4914V5.823Z" fill="#007788"/>
<path d="M2.9186 10.0155L1.69467 8.57143L12.004 0L21.3718 8.24534L20.1007 9.64286L11.9569 2.46894L2.9186 10.0155Z" fill="#007788"/>
<path d="M28.2917 8.24533L23.5372 4.09936L19.1122 7.7329L17.9353 6.2888L23.5843 1.677L29.5627 6.84781L28.2917 8.24533Z" fill="#007788"/>
<path d="M13.5103 7.5H10.4976V10.4814H13.5103V7.5Z" fill="#007788"/>
<path d="M24.4787 7.5H22.6428V9.31677H24.4787V7.5Z" fill="#007788"/>
<path d="M2.542 19.8447H1.271V21.7081H2.542V19.8447Z" fill="#007788"/>
<path d="M26.1263 21.7081H23.7725V19.8447H26.1263V21.7081ZM21.3717 21.7081H19.018V19.8447H21.3717V21.7081ZM16.6643 21.7081H14.3106V19.8447H16.6643V21.7081ZM11.9569 21.7081H9.60316V19.8447H11.9569V21.7081ZM7.24944 21.7081H4.89572V19.8447H7.24944V21.7081Z" fill="#007788"/>
<path d="M29.751 19.8447H28.48V21.7081H29.751V19.8447Z" fill="#007788"/>
</svg>
